<?xml version="1.0" encoding="UTF-8"?>
<svg version="1.1" xmlns="http://www.w3.org/2000/svg" width="600" height="600">
<path d="M0 0 C-0.33171748 2.98545732 -0.5727312 4.58222606 -2.7578125 6.71875 C-6.10861184 10.12792563 -8.34945016 14.14909438 -10.8203125 18.21875 C-11.83104772 19.84412151 -12.91031002 21.42647085 -14 23 C-14.66 23 -15.32 23 -16 23 C-16 23.99 -16 24.98 -16 26 C-16.66 26 -17.32 26 -18 26 C-18 26.99 -18 27.98 -18 29 C-18.66 29 -19.32 29 -20 29 C-20 29.99 -20 30.98 -20 32 C-20.66 32 -21.32 32 -22 32 C-22.33837891 33.01707031 -22.33837891 33.01707031 -22.68359375 34.0546875 C-24.3566912 37.79805687 -26.62305265 40.84710045 -29.0625 44.125 C-32.58115358 48.75108918 -32.58115358 48.75108918 -35 54 C-35.98514359 55.01463891 -36.98841369 56.01172213 -38 57 C-39.40278681 58.81216039 -40.77562664 60.64772366 -42.125 62.5 C-42.82882812 63.4590625 -43.53265625 64.418125 -44.2578125 65.40625 C-46.1291937 67.94347937 -46.1291937 67.94347937 -47 71 C-49 73 -49 73 -51 74 C-51 74.99 -51 75.98 -51 77 C-51.66 77 -52.32 77 -53 77 C-53.37125 77.7734375 -53.37125 77.7734375 -53.75 78.5625 C-55.39581616 81.77184151 -57.1976096 84.87585664 -59 88 C-59.66 88 -60.32 88 -61 88 C-61 88.99 -61 89.98 -61 91 C-61.66 91 -62.32 91 -63 91 C-63 91.99 -63 92.98 -63 94 C-63.66 94 -64.32 94 -65 94 C-65.28447998 94.58410645 -65.56895996 95.16821289 -65.86206055 95.77001953 C-67.64433847 99.26268774 -69.74039579 102.54864714 -71.8125 105.875 C-72.23853516 106.56980469 -72.66457031 107.26460938 -73.10351562 107.98046875 C-75.7854236 112.28937384 -78.73964077 116.09995004 -82 120 C-84.06075503 123.03993755 -85.96002766 126.17978098 -87.86914062 129.31640625 C-88.86289439 130.90980973 -89.92593346 132.45959023 -91 134 C-91.66 134 -92.32 134 -93 134 C-93.226875 134.66386719 -93.45375 135.32773438 -93.6875 136.01171875 C-95.39717799 139.90428918 -97.63888638 143.28769467 -100 146.8125 C-100.45117188 147.50537109 -100.90234375 148.19824219 -101.3671875 148.91210938 C-102.52234147 150.64654913 -103.75538259 152.32859656 -105 154 C-105.66 154 -106.32 154 -107 154 C-107 154.99 -107 155.98 -107 157 C-107.66 157 -108.32 157 -109 157 C-109.2475 157.69480469 -109.495 158.38960937 -109.75 159.10546875 C-111.19011856 162.44024329 -112.99075038 165.28754515 -115 168.3125 C-115.70125 169.38113281 -116.4025 170.44976562 -117.125 171.55078125 C-117.74375 172.35902344 -118.3625 173.16726562 -119 174 C-119.66 174 -120.32 174 -121 174 C-121.103125 174.5671875 -121.20625 175.134375 -121.3125 175.71875 C-122.12818416 178.42533835 -123.34833677 180.20602329 -125 182.5 C-125.62003906 183.36625 -126.24007813 184.2325 -126.87890625 185.125 C-128.39401602 187.17862945 -129.9196039 189.21935394 -131.46484375 191.25 C-131.87541016 191.79076172 -132.28597656 192.33152344 -132.70898438 192.88867188 C-133.89238707 194.44082962 -135.08469641 195.98618433 -136.27734375 197.53125 C-138.1907475 199.77163472 -138.1907475 199.77163472 -138 202 C-138.66 202 -139.32 202 -140 202 C-140.309375 202.99 -140.309375 202.99 -140.625 204 C-142.51152871 208.11606263 -145.20567979 211.4587703 -148 215 C-151.30048451 214.43981393 -152.66218464 213.65485773 -154.65625 210.98046875 C-155.12160156 210.37009766 -155.58695312 209.75972656 -156.06640625 209.13085938 C-156.53949219 208.48955078 -157.01257813 207.84824219 -157.5 207.1875 C-160.48596642 203.21299157 -163.38796861 199.43928206 -167 196 C-171 191.44444444 -171 191.44444444 -171 188 C-171.58265625 187.77570313 -172.1653125 187.55140625 -172.765625 187.3203125 C-175.6397829 185.62194647 -176.9055605 183.64165926 -178.75 180.875 C-179.36359375 179.96492187 -179.9771875 179.05484375 -180.609375 178.1171875 C-181.06828125 177.41851562 -181.5271875 176.71984375 -182 176 C-182.55429687 176.721875 -183.10859375 177.44375 -183.6796875 178.1875 C-184.76636719 179.5796875 -184.76636719 179.5796875 -185.875 181 C-186.95394531 182.3921875 -186.95394531 182.3921875 -188.0546875 183.8125 C-188.69664062 184.534375 -189.33859375 185.25625 -190 186 C-190.66 186 -191.32 186 -192 186 C-192.185625 186.9590625 -192.185625 186.9590625 -192.375 187.9375 C-192.58125 188.618125 -192.7875 189.29875 -193 190 C-193.66 190.33 -194.32 190.66 -195 191 C-195.268125 191.5775 -195.53625 192.155 -195.8125 192.75 C-197 195 -197 195 -199.25 197.21484375 C-202.74116156 200.75063664 -205.58331746 204.62240102 -208.51367188 208.62304688 C-209.63145233 210.11626503 -210.8110824 211.56277749 -212 213 C-212.66 213 -213.32 213 -214 213 C-214.185625 213.9590625 -214.185625 213.9590625 -214.375 214.9375 C-214.58125 215.618125 -214.7875 216.29875 -215 217 C-215.66 217.33 -216.32 217.66 -217 218 C-217.268125 218.5775 -217.53625 219.155 -217.8125 219.75 C-219 222 -219 222 -221.19140625 224.12890625 C-225.2488448 228.09777362 -228.39386102 232.79920876 -231.71484375 237.38085938 C-232.22402344 238.07373047 -232.73320312 238.76660156 -233.2578125 239.48046875 C-233.94061279 240.42249146 -233.94061279 240.42249146 -234.63720703 241.38354492 C-236 243 -236 243 -239 245 C-239.33 245.99 -239.66 246.98 -240 248 C-239.01 248 -238.02 248 -237 248 C-237 247.34 -237 246.68 -237 246 C-232.97792341 243.96190738 -228.92259489 242.04087198 -224.8125 240.1875 C-219.66442076 237.82358606 -214.69766223 235.25820078 -209.75 232.50390625 C-205.86160431 230.37743986 -201.90181096 228.40966262 -197.921875 226.4609375 C-196.01516968 225.50758484 -194.12786345 224.51409535 -192.265625 223.4765625 C-186.95512986 220.56383638 -183.9225995 219.32622188 -178 221 C-178 221.66 -178 222.32 -178 223 C-176.68 223 -175.36 223 -174 223 C-173.34 223.66 -172.68 224.32 -172 225 C-170.68252676 225.69748583 -169.35085807 226.36959957 -168 227 C-168 227.66 -168 228.32 -168 229 C-167.01 229 -166.02 229 -165 229 C-165 229.66 -165 230.32 -165 231 C-164.278125 231.28875 -163.55625 231.5775 -162.8125 231.875 C-158.90625 233.4375 -158.90625 233.4375 -155 235 C-155 235.66 -155 236.32 -155 237 C-154.34 237.20625 -153.68 237.4125 -153 237.625 C-149.52948354 239.21565338 -146.84289379 241.29232771 -143.8671875 243.66015625 C-141.93516371 245.18614683 -141.93516371 245.18614683 -139 246 C-139 246.66 -139 247.32 -139 248 C-137.88625 248.1546875 -137.88625 248.1546875 -136.75 248.3125 C-133.77625741 249.05593565 -132.35839661 250.09806725 -130 252 C-128.68163705 252.69580267 -127.35208914 253.37224433 -126 254 C-126 254.66 -126 255.32 -126 256 C-125.01 256 -124.02 256 -123 256 C-123 256.66 -123 257.32 -123 258 C-121.329375 258.433125 -121.329375 258.433125 -119.625 258.875 C-116 260 -116 260 -114 262 C-113.67 262.66 -113.34 263.32 -113 264 C-112.01 264 -111.02 264 -110 264 C-110 264.66 -110 265.32 -110 266 C-109.29875 266.268125 -108.5975 266.53625 -107.875 266.8125 C-104.8350176 268.0681449 -101.9272226 269.50235123 -99 271 C-99 271.66 -99 272.32 -99 273 C-98.319375 273.2475 -97.63875 273.495 -96.9375 273.75 C-93.43134917 275.24197908 -90.28379632 277.06835511 -87 279 C-87 279.66 -87 280.32 -87 281 C-86.01 281 -85.02 281 -84 281 C-84 281.66 -84 282.32 -84 283 C-83.01 283 -82.02 283 -81 283 C-81 283.66 -81 284.32 -81 285 C-80.01 285 -79.02 285 -78 285 C-77.67 285.99 -77.34 286.98 -77 288 C-78.26865682 290.53731364 -79.49709121 290.78646846 -82 292 C-82.66 292.66 -83.32 293.32 -84 294 C-85.2684375 294.4640625 -85.2684375 294.4640625 -86.5625 294.9375 C-87.366875 295.288125 -88.17125 295.63875 -89 296 C-89.33 296.99 -89.66 297.98 -90 299 C-90.99 299.33 -91.98 299.66 -93 300 C-93.66 300.66 -94.32 301.32 -95 302 C-96.13589257 303.03188313 -97.28274044 304.05177497 -98.4375 305.0625 C-99.03433594 305.58972656 -99.63117188 306.11695313 -100.24609375 306.66015625 C-102 308 -102 308 -105 309 C-105.66 309.66 -106.32 310.32 -107 311 C-108.13589257 312.03188313 -109.28274044 313.05177497 -110.4375 314.0625 C-111.03433594 314.58972656 -111.63117188 315.11695313 -112.24609375 315.66015625 C-114 317 -114 317 -117 318 C-117.66 318.66 -118.32 319.32 -119 320 C-120.25952742 320.97314481 -121.53185401 321.9298196 -122.8125 322.875 C-128.6844124 326.74309509 -128.6844124 326.74309509 -133 332 C-134.69922995 332.96622879 -136.4002932 333.92947152 -138.11328125 334.87109375 C-140.40012626 336.23941302 -142.35106116 337.92000048 -144.359375 339.6640625 C-146.20581872 341.16759524 -148.12953862 342.45079673 -150.125 343.75 C-156.60607474 347.98974907 -163.51189998 352.51189998 -169 358 C-170.010625 358.66 -171.02125 359.32 -172.0625 360 C-175.04317691 361.67998292 -175.04317691 361.67998292 -176 364 C-176.99 364.33 -177.98 364.66 -179 365 C-179.66 365.66 -180.32 366.32 -181 367 C-182.010625 367.66 -183.02125 368.32 -184.0625 369 C-187.04317691 370.67998292 -187.04317691 370.67998292 -188 373 C-188.99 373.33 -189.98 373.66 -191 374 C-191.66 374.66 -192.32 375.32 -193 376 C-193.845625 376.495 -194.69125 376.99 -195.5625 377.5 C-198.10406871 378.76866837 -198.10406871 378.76866837 -199 381 C-200.32467746 381.6837045 -201.65863633 382.34964186 -203 383 C-203.66 383.66 -204.32 384.32 -205 385 C-205.845625 385.495 -206.69125 385.99 -207.5625 386.5 C-210.10406871 387.76866837 -210.10406871 387.76866837 -211 390 C-211.99 390.33 -212.98 390.66 -214 391 C-214.66 391.66 -215.32 392.32 -216 393 C-217.13589257 394.03188313 -218.28274044 395.05177497 -219.4375 396.0625 C-220.03433594 396.58972656 -220.63117188 397.11695313 -221.24609375 397.66015625 C-223 399 -223 399 -226 400 C-226.66 400.66 -227.32 401.32 -228 402 C-231.69230769 405 -231.69230769 405 -234 405 C-234.33 405.99 -234.66 406.98 -235 408 C-235.99 408.33 -236.98 408.66 -238 409 C-238.66 409.66 -239.32 410.32 -240 411 C-245.56578947 415.85526316 -245.56578947 415.85526316 -249 417 C-250.02408568 417.9753197 -251.01834406 418.98198643 -252 420 C-257.53846154 424.84615385 -257.53846154 424.84615385 -261 426 C-261.66 426.99 -262.32 427.98 -263 429 C-263.99 429 -264.98 429 -266 429 C-266.33 429.99 -266.66 430.98 -267 432 C-270 434 -270 434 -273 434 C-273.33 434.99 -273.66 435.98 -274 437 C-276.8149778 439.55107363 -279.89623903 441.60730677 -283.0625 443.6875 C-293.02344015 450.22644244 -293.02344015 450.22644244 -302 458 C-303.27987267 458.9945331 -304.57302935 459.97207648 -305.875 460.9375 C-306.89207031 461.69353516 -306.89207031 461.69353516 -307.9296875 462.46484375 C-308.95449219 463.22474609 -308.95449219 463.22474609 -310 464 C-310.97646484 464.74443359 -310.97646484 464.74443359 -311.97265625 465.50390625 C-314.85748114 467.63278474 -317.87031091 469.55176963 -320.87890625 471.5 C-322.81903293 472.87202329 -324.36674315 474.28579456 -326 476 C-328.13823062 477.7105845 -330.26924726 479.16026623 -332.625 480.5625 C-335.07611371 481.91692163 -335.07611371 481.91692163 -337 484 C-340.19107293 486.67360164 -343.42733589 488.87571323 -347 491 C-347.66 491.66 -348.32 492.32 -349 493 C-352.69230769 496 -352.69230769 496 -355 496 C-355.33 496.99 -355.66 497.98 -356 499 C-356.99 499.33 -357.98 499.66 -359 500 C-359.66 500.66 -360.32 501.32 -361 502 C-364.69230769 505 -364.69230769 505 -367 505 C-367.33 505.99 -367.66 506.98 -368 508 C-368.99 508.33 -369.98 508.66 -371 509 C-371.66 509.66 -372.32 510.32 -373 511 C-378.56578947 515.85526316 -378.56578947 515.85526316 -382 517 C-383.02408568 517.9753197 -384.01834406 518.98198643 -385 520 C-390.53846154 524.84615385 -390.53846154 524.84615385 -394 526 C-394.33 526.66 -394.66 527.32 -395 528 C-395.99 528.33 -396.98 528.66 -398 529 C-398.66 529.99 -399.32 530.98 -400 532 C-403 534 -403 534 -406 534 C-406.33 534.99 -406.66 535.98 -407 537 C-407.99 537 -408.98 537 -410 537 C-410 537.66 -410 538.32 -410 539 C-411.74167699 540.3980016 -413.54470641 541.72020603 -415.375 543 C-419.37211214 545.78064768 -419.37211214 545.78064768 -423 549 C-424.75892952 550.29430663 -426.55048182 551.53508058 -428.34375 552.78125 C-430.13734548 554.03705082 -430.13734548 554.03705082 -432 556 C-433.32 556 -434.64 556 -436 556 C-436.125 553.625 -436.125 553.625 -436 551 C-435.34 550.34 -434.68 549.68 -434 549 C-433.06767664 547.80370557 -432.1530076 546.59357478 -431.25 545.375 C-430.7240625 544.66859375 -430.198125 543.9621875 -429.65625 543.234375 C-429.1096875 542.49703125 -428.563125 541.7596875 -428 541 C-426.91817048 539.54055075 -425.83489933 538.08216871 -424.75 536.625 C-424.03070313 535.65433594 -424.03070313 535.65433594 -423.296875 534.6640625 C-422 533 -422 533 -420 531 C-419.566875 530.236875 -419.13375 529.47375 -418.6875 528.6875 C-417 526 -417 526 -414.75 523.8125 C-411.50548414 520.49424514 -409.09704954 516.87911073 -406.55078125 513.01171875 C-406.03902344 512.34785156 -405.52726562 511.68398438 -405 511 C-404.34 511 -403.68 511 -403 511 C-402.67 509.68 -402.34 508.36 -402 507 C-401.34 507 -400.68 507 -400 507 C-399.773125 506.113125 -399.54625 505.22625 -399.3125 504.3125 C-397.78415201 500.45524078 -395.96027729 498.89449335 -393 496 C-391.12265081 493.37413873 -389.32578733 490.70768142 -387.55078125 488.01171875 C-386.78314453 487.01591797 -386.78314453 487.01591797 -386 486 C-385.34 486 -384.68 486 -384 486 C-383.67 484.68 -383.34 483.36 -383 482 C-382.34 482 -381.68 482 -381 482 C-381 481.01 -381 480.02 -381 479 C-379.3540349 477.31288577 -377.68762851 475.6454378 -376 474 C-376 473.34 -376 472.68 -376 472 C-374.83961948 470.87374832 -373.67703417 469.74968626 -372.50390625 468.63671875 C-370.06443381 465.98181238 -368.24369048 462.93717427 -366.33203125 459.890625 C-365 458 -365 458 -363 457 C-362.67 456.01 -362.34 455.02 -362 454 C-360.8508359 452.88463484 -359.69933177 451.77156266 -358.53515625 450.671875 C-355.83418352 447.73035763 -353.74248907 444.34058761 -351.55078125 441.01171875 C-350.78314453 440.01591797 -350.78314453 440.01591797 -350 439 C-349.34 439 -348.68 439 -348 439 C-347.67 437.68 -347.34 436.36 -347 435 C-346.34 435 -345.68 435 -345 435 C-345 434.01 -345 433.02 -345 432 C-344.34 431.34 -343.68 430.68 -343 430 C-342.06767664 428.80370557 -341.1530076 427.59357478 -340.25 426.375 C-339.7240625 425.67117188 -339.198125 424.96734375 -338.65625 424.2421875 C-337.54210263 422.73388422 -336.43806677 421.21806461 -335.34375 419.6953125 C-334.8178125 418.97085937 -334.291875 418.24640625 -333.75 417.5 C-333.27046875 416.8296875 -332.7909375 416.159375 -332.296875 415.46875 C-331.65492188 414.74171875 -331.65492188 414.74171875 -331 414 C-330.34 414 -329.68 414 -329 414 C-329 413.01 -329 412.02 -329 411 C-328.34 410.67 -327.68 410.34 -327 410 C-326.67 409.01 -326.34 408.02 -326 407 C-325.27039063 406.28070313 -324.54078125 405.56140625 -323.7890625 404.8203125 C-320.45824575 401.45217567 -317.98415872 397.81024213 -315.375 393.875 C-314.42748186 392.45372279 -313.47705984 391.03437626 -312.5234375 389.6171875 C-312.11013184 388.99440918 -311.69682617 388.37163086 -311.27099609 387.72998047 C-309.97770316 385.96965129 -308.56688626 384.51710985 -307 383 C-306.04053417 381.78790171 -305.10408611 380.55734009 -304.1875 379.3125 C-303.67058594 378.61769531 -303.15367187 377.92289062 -302.62109375 377.20703125 C-301.52178822 375.71038638 -300.43088309 374.2075417 -299.34765625 372.69921875 C-298.82042969 371.97347656 -298.29320312 371.24773437 -297.75 370.5 C-297.27046875 369.8296875 -296.7909375 369.159375 -296.296875 368.46875 C-295.86890625 367.9840625 -295.4409375 367.499375 -295 367 C-294.34 367 -293.68 367 -293 367 C-292.67 365.68 -292.34 364.36 -292 363 C-291.34 363 -290.68 363 -290 363 C-290 362.01 -290 361.02 -290 360 C-289.34 359.34 -288.68 358.68 -288 358 C-287.06767664 356.80370557 -286.1530076 355.59357478 -285.25 354.375 C-284.7240625 353.67117188 -284.198125 352.96734375 -283.65625 352.2421875 C-282.54210263 350.73388422 -281.43806677 349.21806461 -280.34375 347.6953125 C-279.8178125 346.97085937 -279.291875 346.24640625 -278.75 345.5 C-278.27046875 344.8296875 -277.7909375 344.159375 -277.296875 343.46875 C-276.86890625 342.9840625 -276.4409375 342.499375 -276 342 C-275.34 342 -274.68 342 -274 342 C-274 341.01 -274 340.02 -274 339 C-273.34 338.67 -272.68 338.34 -272 338 C-271.67 337.01 -271.34 336.02 -271 335 C-269.33333333 333.33333333 -267.66666667 331.66666667 -266 330 C-266 329.34 -266 328.68 -266 328 C-264.37550757 326.29220027 -262.70779973 324.62449243 -261 323 C-260.67 322.67 -260.34 322.34 -260 322 C-257.97585009 321.87624831 -255.94742263 321.82202689 -253.91967773 321.79467773 C-252.61840439 321.77473251 -251.31713104 321.75478729 -249.97642517 321.73423767 C-248.5454826 321.71725201 -247.11453875 321.70037325 -245.68359375 321.68359375 C-244.2277008 321.66303094 -242.77181391 321.64203466 -241.31593323 321.62062073 C-237.47727353 321.56533039 -233.63855935 321.51595198 -229.79980469 321.46777344 C-225.88536712 321.41760909 -221.97100904 321.36189664 -218.05664062 321.30664062 C-210.37116099 321.19897397 -202.68561543 321.09754807 -195 321 C-196.65 320.34 -198.3 319.68 -200 319 C-200 318.34 -200 317.68 -200 317 C-202.93720508 315.47700477 -205.9168649 314.19899698 -209 313 C-209 312.34 -209 311.68 -209 311 C-209.99 311 -210.98 311 -212 311 C-213.37562854 309.71034824 -214.70766393 308.37310707 -216 307 C-219.23709714 304.84193524 -219.68653846 304.77736583 -223.32226562 305.11694336 C-224.20305786 305.19513809 -225.0838501 305.27333282 -225.99133301 305.35389709 C-226.95325562 305.45238449 -227.91517822 305.55087189 -228.90625 305.65234375 C-230.42502747 305.79675148 -230.42502747 305.79675148 -231.9744873 305.94407654 C-244.84821942 307.21175004 -257.67383951 308.89082775 -270.5 310.5625 C-272.98562307 310.88258121 -275.47129998 311.20224457 -277.95703125 311.52148438 C-289.51379169 312.98469647 -289.51379169 312.98469647 -301.05102539 314.59130859 C-304.05391323 315.00747171 -306.90843019 315.09989592 -309.9375 315.0625 C-310.89527344 315.05347656 -311.85304688 315.04445313 -312.83984375 315.03515625 C-313.90912109 315.01775391 -313.90912109 315.01775391 -315 315 C-314.31342802 307.13601628 -312.73596018 299.55433014 -311.05078125 291.8515625 C-310.75232929 290.4718719 -310.4542572 289.09209908 -310.15653992 287.71224976 C-309.37212552 284.08204282 -308.58220767 280.45305462 -307.79119873 276.82427979 C-307.16364123 273.94109997 -306.53991139 271.05709926 -305.91641712 268.17303848 C-302.00943529 250.10084982 -298.03438919 232.04420294 -294 214 C-293.81029633 213.15060852 -293.62059265 212.30121704 -293.42514038 211.42608643 C-292.35066435 206.61631567 -291.27063701 201.80782755 -290.1875 197 C-289.96429077 196.00395752 -289.96429077 196.00395752 -289.73657227 194.98779297 C-289.29852164 193.0331955 -288.8582847 191.0790884 -288.41796875 189.125 C-288.16813232 188.01382813 -287.9182959 186.90265625 -287.66088867 185.7578125 C-287 183 -287 183 -286 180 C-287.175625 179.608125 -288.35125 179.21625 -289.5625 178.8125 C-290.38105469 178.53921875 -291.19960938 178.2659375 -292.04296875 177.984375 C-294.21122728 177.26257692 -296.38066994 176.54433335 -298.55078125 175.828125 C-306.0801996 173.33973693 -313.56790663 170.76747687 -321 168 C-321.97066406 167.64156006 -321.97066406 167.64156006 -322.9609375 167.27587891 C-325.12080434 166.47829072 -327.27931436 165.67712526 -329.4375 164.875 C-330.12448975 164.62113525 -330.81147949 164.36727051 -331.51928711 164.10571289 C-334.77151136 162.89069766 -337.93887941 161.64408011 -341 160 C-341 159.01 -341 158.02 -341 157 C-339.92621094 156.54109375 -338.85242188 156.0821875 -337.74609375 155.609375 C-336.30980296 154.98979858 -334.87361026 154.36999474 -333.4375 153.75 C-332.73302734 153.44964844 -332.02855469 153.14929688 -331.30273438 152.83984375 C-327.85117884 151.34469988 -324.52691622 149.78537994 -321.27734375 147.88671875 C-318.55916305 146.32190197 -316.05563102 145.13311773 -313.125 144.0625 C-308.85515124 142.42474979 -305.01318538 140.41887219 -301.10546875 138.05078125 C-299 137 -299 137 -296.68359375 136.57421875 C-293.10478241 135.80844689 -290.09237924 134.1807205 -286.875 132.5 C-280.79814184 129.39077807 -274.68032076 126.39814492 -268.5 123.5 C-262.43146604 120.65105288 -256.41558444 117.72146342 -250.4375 114.6875 C-245.60942563 112.24592404 -240.78079007 109.98981953 -235.71875 108.07421875 C-231.2025046 106.28978271 -226.78322182 104.2775018 -222.35546875 102.28491211 C-217.21550812 100 -217.21550812 100 -215 100 C-215 99.34 -215 98.68 -215 98 C-214.04915527 97.59273682 -214.04915527 97.59273682 -213.07910156 97.17724609 C-210.13447517 95.91350614 -207.19224459 94.64427486 -204.25 93.375 C-203.25355469 92.94832031 -202.25710938 92.52164063 -201.23046875 92.08203125 C-195.08855898 89.42714122 -189.08848065 86.58196379 -183.12060547 83.55761719 C-177.45103698 80.72771209 -171.69013725 78.09328522 -165.9375 75.4375 C-164.15375977 74.61088867 -164.15375977 74.61088867 -162.33398438 73.76757812 C-159.99987473 72.68704302 -157.66446487 71.60931123 -155.32763672 70.53466797 C-153.14280726 69.52704963 -150.96197449 68.51071044 -148.78564453 67.48486328 C-147.8057959 67.02708496 -146.82594727 66.56930664 -145.81640625 66.09765625 C-144.9560376 65.69168213 -144.09566895 65.28570801 -143.20922852 64.86743164 C-141 64 -141 64 -138 64 C-137.67 63.34 -137.34 62.68 -137 62 C-134.55714311 60.71152417 -132.13287379 59.52172296 -129.625 58.375 C-128.93921875 58.05015625 -128.2534375 57.7253125 -127.546875 57.390625 C-124.53825033 55.99752642 -122.35384431 55 -119 55 C-118.67 54.34 -118.34 53.68 -118 53 C-115.55714311 51.71152417 -113.13287379 50.52172296 -110.625 49.375 C-109.93921875 49.05015625 -109.2534375 48.7253125 -108.546875 48.390625 C-105.53825033 46.99752642 -103.35384431 46 -100 46 C-99.67 45.34 -99.34 44.68 -99 44 C-98.01 44 -97.02 44 -96 44 C-95.67 43.34 -95.34 42.68 -95 42 C-93.24780273 41.06811523 -93.24780273 41.06811523 -90.99609375 40.12109375 C-90.18124512 39.77288574 -89.36639648 39.42467773 -88.52685547 39.06591797 C-87.69299316 38.71416504 -86.85913086 38.36241211 -86 38 C-84.51048029 37.34787357 -83.02215879 36.69300221 -81.53515625 36.03515625 C-80.80353271 35.71289062 -80.07190918 35.390625 -79.31811523 35.05859375 C-73.03623861 32.28447787 -66.80126572 29.47883834 -60.6875 26.34765625 C-51.89504166 21.93864734 -42.94495448 17.79790253 -33.92578125 13.875 C-31.13453682 12.60676724 -28.4293746 11.18032386 -25.7265625 9.734375 C-24 9 -24 9 -21 9 C-20.67 8.34 -20.34 7.68 -20 7 C-18.07105963 6.26833296 -16.13933209 5.54279027 -14.19140625 4.86328125 C-12.05834181 4.02298314 -10.25539088 3.02093543 -8.3125 1.8125 C-5.08004099 0.04379601 -3.58587035 -0.43465095 0 0 Z " fill="#F6F8FE" transform="translate(511,13)"/>
<path d="M0 0 C0.66 0.33 1.32 0.66 2 1 C-3.22577097 6.27632409 -8.45924379 11.54491517 -13.69824219 16.80810547 C-15.48096803 18.60091239 -17.2618979 20.39550699 -19.04101562 22.19189453 C-21.59299438 24.76802899 -24.15128303 27.33774492 -26.7109375 29.90625 C-27.50994476 30.71557983 -28.30895203 31.52490967 -29.13217163 32.35876465 C-29.87278839 33.09953247 -30.61340515 33.84030029 -31.37646484 34.60351562 C-32.35575455 35.58946716 -32.35575455 35.58946716 -33.35482788 36.59533691 C-35 38 -35 38 -37 38 C-37.495 40.475 -37.495 40.475 -38 43 C-38.33 43 -38.66 43 -39 43 C-38.51330978 34.38189798 -36.52959508 26.22279896 -34.4375 17.875 C-34.10418953 16.52359228 -33.77150277 15.17203057 -33.43945312 13.8203125 C-32.6323998 10.54531352 -31.81911651 7.2719987 -31 4 C-32.98 3.34 -34.96 2.68 -37 2 C-34 1 -34 1 -31.8125 1.9375 C-30.9153125 2.4634375 -30.9153125 2.4634375 -30 3 C-30.44639211 9.80747963 -31.59521115 16.33601723 -33 23 C-33.17821289 23.84925049 -33.35642578 24.69850098 -33.54003906 25.57348633 C-34.86608721 31.73217441 -34.86608721 31.73217441 -36 34 C-31.07087819 31.45102222 -27.578711 27.83492328 -23.73046875 23.92578125 C-23.04946609 23.2419487 -22.36846344 22.55811615 -21.66682434 21.8535614 C-19.50229232 19.677874 -17.34483576 17.49532083 -15.1875 15.3125 C-13.71725897 13.83222319 -12.24656082 12.35240024 -10.77539062 10.87304688 C-7.17827698 7.25393443 -3.58749105 3.62865016 0 0 Z " fill="#ABC3F6" transform="translate(256,189)"/>
<path d="M0 0 C0.66 0.33 1.32 0.66 2 1 C-0.36292656 3.52588702 -1.66462511 4.88820837 -5 6 C-5.66 6.66 -6.32 7.32 -7 8 C-8.25952742 8.97314481 -9.53185401 9.9298196 -10.8125 10.875 C-16.6844124 14.74309509 -16.6844124 14.74309509 -21 20 C-22.69922995 20.96622879 -24.4002932 21.92947152 -26.11328125 22.87109375 C-28.3856367 24.23074328 -30.3253966 25.89946713 -32.32421875 27.62890625 C-41.33333333 35 -41.33333333 35 -46 35 C-43.33536078 32.91406385 -40.66801883 30.83161137 -38 28.75 C-36.79041626 27.80459351 -36.79041626 27.80459351 -35.55639648 26.84008789 C-31.52359924 23.69891291 -27.47419467 20.59150118 -23.34765625 17.57421875 C-22.62513672 17.0440918 -21.90261719 16.51396484 -21.15820312 15.96777344 C-19.7914448 14.96977237 -18.41925787 13.97915114 -17.04101562 12.99707031 C-13.38984526 10.32599085 -11.14860514 8.07665809 -9 4 C-6.44001552 2.34839711 -3.93756335 1.70906701 -1 1 C-0.67 0.67 -0.34 0.34 0 0 Z " fill="#3173F9" transform="translate(399,325)"/>
<path d="M0 0 C1.32 0.66 2.64 1.32 4 2 C4 2.33 4 2.66 4 3 C3.16950134 3.00142502 2.33900269 3.00285004 1.4833374 3.00431824 C-6.34468631 3.02215026 -14.17214465 3.06376913 -21.999897 3.13209057 C-26.0242584 3.16637705 -30.04823954 3.19147302 -34.07275391 3.19555664 C-37.95697671 3.19983622 -41.84034149 3.22826882 -45.72429657 3.27343178 C-47.20579785 3.28641799 -48.68740176 3.29071042 -50.16895294 3.28615379 C-52.24541263 3.28125498 -54.31935744 3.30729895 -56.39550781 3.34057617 C-57.57687317 3.34723801 -58.75823853 3.35389984 -59.97540283 3.36076355 C-63.89218017 4.18855869 -64.74906077 5.8021637 -67 9 C-67.99 9.33 -68.98 9.66 -70 10 C-70.33 9.34 -70.66 8.68 -71 8 C-64.875 1.875 -64.875 1.875 -58.91967773 1.79467773 C-57.61840439 1.77473251 -56.31713104 1.75478729 -54.97642517 1.73423767 C-53.5454826 1.71725201 -52.11453875 1.70037325 -50.68359375 1.68359375 C-49.2277008 1.66303094 -47.77181391 1.64203466 -46.31593323 1.62062073 C-42.47727353 1.56533039 -38.63855935 1.51595198 -34.79980469 1.46777344 C-30.88536712 1.41760909 -26.97100904 1.36189664 -23.05664062 1.30664062 C-15.37116099 1.19897397 -7.68561543 1.09754807 0 1 C0 0.67 0 0.34 0 0 Z " fill="#6597FD" transform="translate(316,333)"/>
<path d="M0 0 C0 3.36403475 -0.61880053 4.40092917 -2.375 7.1875 C-2.81585938 7.90292969 -3.25671875 8.61835938 -3.7109375 9.35546875 C-4.13632812 9.89816406 -4.56171875 10.44085938 -5 11 C-5.66 11 -6.32 11 -7 11 C-7.33 11.99 -7.66 12.98 -8 14 C-8.33 13.01 -8.66 12.02 -9 11 C-17.25 11 -25.5 11 -34 11 C-34 10.34 -34 9.68 -34 9 C-32.82812134 9.07069702 -32.82812134 9.07069702 -31.63256836 9.14282227 C-28.06821738 9.33072569 -24.50490697 9.44718618 -20.9375 9.5625 C-19.09381836 9.67561523 -19.09381836 9.67561523 -17.21289062 9.79101562 C-10.36901593 10.09036952 -10.36901593 10.09036952 -4.56689453 6.95654297 C-2.8194366 4.70981134 -1.33991845 2.50798804 0 0 Z " fill="#E5EAF4" transform="translate(425,136)"/>
<path d="M0 0 C5.15030167 1.40462773 8.91335027 4.73181372 12 9 C11.9375 11.9375 11.9375 11.9375 11 14 C7.11807874 10.23225289 3.20468119 6.37202211 0 2 C0 1.34 0 0.68 0 0 Z " fill="#B8CDF7" transform="translate(350,214)"/>
<path d="M0 0 C0.66 0.33 1.32 0.66 2 1 C-0.36292656 3.52588702 -1.66462511 4.88820837 -5 6 C-5.66 6.66 -6.32 7.32 -7 8 C-9.125 8.625 -9.125 8.625 -11 9 C-10.44299928 5.76939581 -9.70784878 3.9341777 -7 2 C-5.33382885 1.95936168 -3.66611905 1.957279 -2 2 C-1.34 1.34 -0.68 0.68 0 0 Z " fill="#95B6F9" transform="translate(399,325)"/>
<path d="M0 0 C0.33 0.66 0.66 1.32 1 2 C2.65 1.67 4.3 1.34 6 1 C4.25 3.5 4.25 3.5 2 6 C0.68 6 -0.64 6 -2 6 C-2 4.35 -2 2.7 -2 1 C-1.34 0.67 -0.68 0.34 0 0 Z " fill="#6E9DFD" transform="translate(77,563)"/>
<path d="M0 0 C2.375 0.5625 2.375 0.5625 5 2 C6.3125 5.625 6.3125 5.625 7 9 C4.03595495 6.19195732 1.55500981 3.81684226 0 0 Z " fill="#709DF8" transform="translate(350,214)"/>
<path d="M0 0 C0 3.36403475 -0.61880053 4.40092917 -2.375 7.1875 C-2.81585938 7.90292969 -3.25671875 8.61835938 -3.7109375 9.35546875 C-4.13632812 9.89816406 -4.56171875 10.44085938 -5 11 C-5.66 11 -6.32 11 -7 11 C-5.22054913 6.95579349 -2.60470327 3.53921513 0 0 Z " fill="#3274F9" transform="translate(425,136)"/>
</svg>
